<?xml version="1.0" encoding="UTF-8"?>
<svg xmlns="http://www.w3.org/2000/svg" viewBox="0 0 600 600">
  <defs>
    <style>
      .cls-1 {
        fill: #fff;
      }

      .cls-2 {
        opacity: .95;
      }

      .cls-2, .cls-3, .cls-4, .cls-5, .cls-6, .cls-7, .cls-8, .cls-9, .cls-10, .cls-11, .cls-12, .cls-13, .cls-14, .cls-15 {
        fill: #84d5f7;
      }

      .cls-3 {
        opacity: .85;
      }

      .cls-4 {
        opacity: .8;
      }

      .cls-6 {
        opacity: .45;
      }

      .cls-7 {
        opacity: .65;
      }

      .cls-8 {
        opacity: .5;
      }

      .cls-9 {
        opacity: .75;
      }

      .cls-10 {
        opacity: .7;
      }

      .cls-11 {
        opacity: .35;
      }

      .cls-12 {
        opacity: .4;
      }

      .cls-13 {
        opacity: .6;
      }

      .cls-14 {
        opacity: .55;
      }

      .cls-15 {
        opacity: .9;
      }
    </style>
  </defs>
  <g id="Circle_Layer" data-name="Circle Layer">
    <circle class="cls-5" cx="299.98" cy="4.13" r="4"/>
    <circle class="cls-5" cx="289.65" cy="4.31" r="4"/>
    <circle class="cls-5" cx="279.33" cy="4.86" r="4"/>
    <circle class="cls-5" cx="269.04" cy="5.76" r="4"/>
    <circle class="cls-5" cx="258.79" cy="7.02" r="4"/>
    <circle class="cls-5" cx="248.58" cy="8.63" r="4"/>
    <circle class="cls-5" cx="238.44" cy="10.61" r="4"/>
    <circle class="cls-5" cx="228.37" cy="12.93" r="4"/>
    <circle class="cls-5" cx="218.4" cy="15.61" r="4"/>
    <circle class="cls-5" cx="208.52" cy="18.63" r="4"/>
    <circle class="cls-5" cx="198.75" cy="21.99" r="4"/>
    <circle class="cls-5" cx="189.1" cy="25.69" r="4"/>
    <circle class="cls-5" cx="179.59" cy="29.73" r="4"/>
    <circle class="cls-5" cx="170.23" cy="34.1" r="4"/>
    <circle class="cls-5" cx="161.03" cy="38.79" r="4"/>
    <circle class="cls-5" cx="151.99" cy="43.8" r="4"/>
    <circle class="cls-5" cx="143.14" cy="49.12" r="4"/>
    <circle class="cls-5" cx="134.47" cy="54.75" r="4"/>
    <circle class="cls-5" cx="126.01" cy="60.67" r="4"/>
    <circle class="cls-5" cx="117.76" cy="66.89" r="4"/>
    <circle class="cls-5" cx="109.73" cy="73.39" r="4"/>
    <circle class="cls-5" cx="101.94" cy="80.17" r="4"/>
    <circle class="cls-5" cx="94.38" cy="87.22" r="4"/>
    <circle class="cls-5" cx="87.08" cy="94.52" r="4"/>
    <circle class="cls-5" cx="80.03" cy="102.08" r="4"/>
    <circle class="cls-5" cx="73.25" cy="109.88" r="4"/>
    <circle class="cls-5" cx="66.75" cy="117.91" r="4"/>
    <circle class="cls-5" cx="60.54" cy="126.16" r="4"/>
    <circle class="cls-5" cx="54.61" cy="134.62" r="4"/>
    <circle class="cls-5" cx="48.99" cy="143.29" r="4"/>
    <circle class="cls-5" cx="43.66" cy="152.14" r="4"/>
    <circle class="cls-5" cx="38.66" cy="161.18" r="4"/>
    <circle class="cls-5" cx="33.97" cy="170.38" r="4"/>
    <circle class="cls-5" cx="29.6" cy="179.75" r="4"/>
    <circle class="cls-5" cx="25.57" cy="189.26" r="4"/>
    <circle class="cls-5" cx="21.86" cy="198.9" r="4"/>
    <circle class="cls-5" cx="18.5" cy="208.67" r="4"/>
    <circle class="cls-5" cx="15.48" cy="218.55" r="4"/>
    <circle class="cls-5" cx="12.81" cy="228.53" r="4"/>
    <circle class="cls-5" cx="10.49" cy="238.6" r="4"/>
    <circle class="cls-5" cx="8.52" cy="248.74" r="4"/>
    <circle class="cls-5" cx="6.9" cy="258.94" r="4"/>
    <circle class="cls-5" cx="5.64" cy="269.2" r="4"/>
    <circle class="cls-5" cx="4.74" cy="279.49" r="4"/>
    <circle class="cls-5" cx="4.2" cy="289.8" r="4"/>
    <circle class="cls-5" cx="4.02" cy="300.13" r="4"/>
    <circle class="cls-5" cx="4.2" cy="310.46" r="4"/>
    <circle class="cls-5" cx="4.75" cy="320.78" r="4"/>
    <circle class="cls-5" cx="5.65" cy="331.07" r="4"/>
    <circle class="cls-5" cx="6.91" cy="341.33" r="4"/>
    <circle class="cls-5" cx="8.52" cy="351.53" r="4"/>
    <circle class="cls-5" cx="10.5" cy="361.67" r="4"/>
    <circle class="cls-5" cx="12.82" cy="371.74" r="4"/>
    <circle class="cls-5" cx="15.5" cy="381.71" r="4"/>
    <circle class="cls-5" cx="18.52" cy="391.59" r="4"/>
    <circle class="cls-5" cx="21.88" cy="401.36" r="4"/>
    <circle class="cls-5" cx="25.58" cy="411.01" r="4"/>
    <circle class="cls-5" cx="29.62" cy="420.52" r="4"/>
    <circle class="cls-5" cx="33.99" cy="429.88" r="4"/>
    <circle class="cls-5" cx="38.68" cy="439.08" r="4"/>
    <circle class="cls-5" cx="43.69" cy="448.12" r="4"/>
    <circle class="cls-5" cx="49.01" cy="456.97" r="4"/>
    <circle class="cls-5" cx="54.64" cy="465.64" r="4"/>
    <circle class="cls-5" cx="60.56" cy="474.1" r="4"/>
    <circle class="cls-5" cx="66.78" cy="482.35" r="4"/>
    <circle class="cls-5" cx="73.28" cy="490.38" r="4"/>
    <circle class="cls-5" cx="80.06" cy="498.17" r="4"/>
    <circle class="cls-5" cx="87.11" cy="505.73" r="4"/>
    <circle class="cls-5" cx="94.41" cy="513.03" r="4"/>
    <circle class="cls-5" cx="101.97" cy="520.08" r="4"/>
    <circle class="cls-5" cx="109.77" cy="526.86" r="4"/>
    <circle class="cls-5" cx="117.8" cy="533.36" r="4"/>
    <circle class="cls-5" cx="126.05" cy="539.57" r="4"/>
    <circle class="cls-5" cx="134.51" cy="545.5" r="4"/>
    <circle class="cls-5" cx="143.18" cy="551.12" r="4"/>
    <circle class="cls-5" cx="152.03" cy="556.45" r="4"/>
    <circle class="cls-5" cx="161.07" cy="561.45" r="4"/>
    <circle class="cls-5" cx="170.27" cy="566.14" r="4"/>
    <circle class="cls-5" cx="179.64" cy="570.51" r="4"/>
    <circle class="cls-5" cx="189.15" cy="574.54" r="4"/>
    <circle class="cls-5" cx="198.79" cy="578.25" r="4"/>
    <circle class="cls-5" cx="208.56" cy="581.61" r="4"/>
    <circle class="cls-5" cx="218.44" cy="584.63" r="4"/>
    <circle class="cls-5" cx="228.42" cy="587.3" r="4"/>
    <circle class="cls-5" cx="238.49" cy="589.62" r="4"/>
    <circle class="cls-5" cx="248.63" cy="591.59" r="4"/>
    <circle class="cls-5" cx="258.83" cy="593.21" r="4"/>
    <circle class="cls-5" cx="269.08" cy="594.47" r="4"/>
    <circle class="cls-5" cx="279.38" cy="595.37" r="4"/>
    <circle class="cls-5" cx="289.69" cy="595.91" r="4"/>
    <circle class="cls-5" cx="300.02" cy="596.09" r="4"/>
    <circle class="cls-5" cx="310.35" cy="595.91" r="4"/>
    <circle class="cls-5" cx="320.67" cy="595.36" r="4"/>
    <circle class="cls-5" cx="330.96" cy="594.46" r="4"/>
    <circle class="cls-5" cx="341.21" cy="593.2" r="4"/>
    <circle class="cls-5" cx="351.42" cy="591.59" r="4"/>
    <circle class="cls-5" cx="361.56" cy="589.61" r="4"/>
    <circle class="cls-5" cx="371.63" cy="587.29" r="4"/>
    <circle class="cls-5" cx="381.6" cy="584.61" r="4"/>
    <circle class="cls-5" cx="391.48" cy="581.59" r="4"/>
    <circle class="cls-5" cx="401.25" cy="578.23" r="4"/>
    <circle class="cls-5" cx="410.9" cy="574.53" r="4"/>
    <circle class="cls-5" cx="420.41" cy="570.49" r="4"/>
    <circle class="cls-5" cx="429.77" cy="566.12" r="4"/>
    <circle class="cls-5" cx="438.97" cy="561.43" r="4"/>
    <circle class="cls-5" cx="448.01" cy="556.42" r="4"/>
    <circle class="cls-5" cx="456.86" cy="551.1" r="4"/>
    <circle class="cls-5" cx="465.53" cy="545.47" r="4"/>
    <circle class="cls-5" cx="473.99" cy="539.55" r="4"/>
    <circle class="cls-5" cx="482.24" cy="533.33" r="4"/>
    <circle class="cls-5" cx="490.27" cy="526.83" r="4"/>
    <circle class="cls-5" cx="498.06" cy="520.05" r="4"/>
    <circle class="cls-5" cx="505.62" cy="513" r="4"/>
    <circle class="cls-5" cx="512.92" cy="505.7" r="4"/>
    <circle class="cls-5" cx="519.97" cy="498.14" r="4"/>
    <circle class="cls-5" cx="526.75" cy="490.34" r="4"/>
    <circle class="cls-5" cx="533.25" cy="482.31" r="4"/>
    <circle class="cls-5" cx="539.46" cy="474.06" r="4"/>
    <circle class="cls-5" cx="545.39" cy="465.6" r="4"/>
    <circle class="cls-5" cx="551.01" cy="456.93" r="4"/>
    <circle class="cls-5" cx="556.34" cy="448.08" r="4"/>
    <circle class="cls-5" cx="561.34" cy="439.04" r="4"/>
    <circle class="cls-5" cx="566.03" cy="429.84" r="4"/>
    <circle class="cls-5" cx="570.4" cy="420.47" r="4"/>
    <circle class="cls-5" cx="574.43" cy="410.96" r="4"/>
    <circle class="cls-5" cx="578.14" cy="401.32" r="4"/>
    <circle class="cls-5" cx="581.5" cy="391.55" r="4"/>
    <circle class="cls-5" cx="584.52" cy="381.67" r="4"/>
    <circle class="cls-5" cx="587.19" cy="371.69" r="4"/>
    <circle class="cls-5" cx="589.51" cy="361.62" r="4"/>
    <circle class="cls-5" cx="591.48" cy="351.48" r="4"/>
    <circle class="cls-5" cx="593.1" cy="341.28" r="4"/>
    <circle class="cls-5" cx="594.36" cy="331.03" r="4"/>
    <circle class="cls-5" cx="595.26" cy="320.73" r="4"/>
    <circle class="cls-5" cx="595.8" cy="310.42" r="4"/>
    <circle class="cls-5" cx="595.98" cy="300.09" r="4"/>
    <circle class="cls-5" cx="595.8" cy="289.76" r="4"/>
    <circle class="cls-5" cx="595.25" cy="279.44" r="4"/>
    <circle class="cls-5" cx="594.35" cy="269.15" r="4"/>
    <circle class="cls-5" cx="593.09" cy="258.9" r="4"/>
    <circle class="cls-5" cx="591.48" cy="248.69" r="4"/>
    <circle class="cls-5" cx="589.5" cy="238.55" r="4"/>
    <circle class="cls-5" cx="587.18" cy="228.48" r="4"/>
    <circle class="cls-5" cx="584.5" cy="218.51" r="4"/>
    <circle class="cls-5" cx="581.48" cy="208.63" r="4"/>
    <circle class="cls-5" cx="578.12" cy="198.86" r="4"/>
    <circle class="cls-5" cx="574.42" cy="189.21" r="4"/>
    <circle class="cls-5" cx="570.38" cy="179.7" r="4"/>
    <circle class="cls-5" cx="566.01" cy="170.34" r="4"/>
    <circle class="cls-5" cx="561.32" cy="161.14" r="4"/>
    <circle class="cls-5" cx="556.31" cy="152.1" r="4"/>
    <circle class="cls-5" cx="550.99" cy="143.25" r="4"/>
    <circle class="cls-5" cx="545.36" cy="134.58" r="4"/>
    <circle class="cls-5" cx="539.44" cy="126.12" r="4"/>
    <circle class="cls-5" cx="533.22" cy="117.87" r="4"/>
    <circle class="cls-5" cx="526.72" cy="109.84" r="4"/>
    <circle class="cls-5" cx="519.94" cy="102.05" r="4"/>
    <circle class="cls-5" cx="512.89" cy="94.49" r="4"/>
    <circle class="cls-5" cx="505.59" cy="87.19" r="4"/>
    <circle class="cls-5" cx="498.03" cy="80.14" r="4"/>
    <circle class="cls-5" cx="490.23" cy="73.36" r="4"/>
    <circle class="cls-5" cx="482.2" cy="66.86" r="4"/>
    <circle class="cls-5" cx="473.95" cy="60.65" r="4"/>
    <circle class="cls-5" cx="465.49" cy="54.72" r="4"/>
    <circle class="cls-5" cx="456.82" cy="49.1" r="4"/>
    <circle class="cls-5" cx="447.97" cy="43.78" r="4"/>
    <circle class="cls-5" cx="438.93" cy="38.77" r="4"/>
    <circle class="cls-5" cx="429.73" cy="34.08" r="4"/>
    <circle class="cls-5" cx="420.36" cy="29.71" r="4"/>
    <circle class="cls-5" cx="410.85" cy="25.68" r="4"/>
    <circle class="cls-5" cx="401.21" cy="21.97" r="4"/>
    <circle class="cls-5" cx="391.44" cy="18.61" r="4"/>
    <circle class="cls-5" cx="381.56" cy="15.59" r="4"/>
    <circle class="cls-5" cx="371.58" cy="12.92" r="4"/>
    <circle class="cls-5" cx="361.51" cy="10.6" r="4"/>
    <circle class="cls-5" cx="351.37" cy="8.63" r="4"/>
    <circle class="cls-5" cx="341.17" cy="7.01" r="4"/>
    <circle class="cls-5" cx="330.92" cy="5.75" r="4"/>
    <circle class="cls-5" cx="320.62" cy="4.85" r="4"/>
    <circle class="cls-5" cx="310.31" cy="4.31" r="4"/>
    <circle class="cls-5" cx="295" cy="15.18" r="4"/>
    <circle class="cls-5" cx="280.1" cy="15.83" r="4"/>
    <circle class="cls-5" cx="265.25" cy="17.26" r="4"/>
    <circle class="cls-5" cx="250.49" cy="19.47" r="4"/>
    <circle class="cls-5" cx="235.87" cy="22.44" r="4"/>
    <circle class="cls-5" cx="221.43" cy="26.18" r="4"/>
    <circle class="cls-5" cx="207.2" cy="30.67" r="4"/>
    <circle class="cls-5" cx="193.22" cy="35.89" r="4"/>
    <circle class="cls-5" cx="179.54" cy="41.84" r="4"/>
    <circle class="cls-5" cx="166.19" cy="48.5" r="4"/>
    <circle class="cls-5" cx="153.21" cy="55.85" r="4"/>
    <circle class="cls-5" cx="140.62" cy="63.87" r="4"/>
    <circle class="cls-5" cx="128.48" cy="72.53" r="4"/>
    <circle class="cls-5" cx="116.8" cy="81.82" r="4"/>
    <circle class="cls-5" cx="105.63" cy="91.71" r="4"/>
    <circle class="cls-5" cx="94.99" cy="102.17" r="4"/>
    <circle class="cls-5" cx="84.91" cy="113.17" r="4"/>
    <circle class="cls-5" cx="75.42" cy="124.68" r="4"/>
    <circle class="cls-5" cx="66.55" cy="136.67" r="4"/>
    <circle class="cls-5" cx="58.31" cy="149.11" r="4"/>
    <circle class="cls-5" cx="50.74" cy="161.97" r="4"/>
    <circle class="cls-5" cx="43.85" cy="175.21" r="4"/>
    <circle class="cls-5" cx="37.67" cy="188.78" r="4"/>
    <circle class="cls-5" cx="32.2" cy="202.66" r="4"/>
    <circle class="cls-5" cx="27.47" cy="216.81" r="4"/>
    <circle class="cls-5" cx="23.48" cy="231.19" r="4"/>
    <circle class="cls-5" cx="20.25" cy="245.76" r="4"/>
    <circle class="cls-5" cx="17.79" cy="260.47" r="4"/>
    <circle class="cls-5" cx="16.11" cy="275.3" r="4"/>
    <circle class="cls-5" cx="15.2" cy="290.19" r="4"/>
    <circle class="cls-5" cx="15.07" cy="305.11" r="4"/>
    <circle class="cls-5" cx="15.72" cy="320.01" r="4"/>
    <circle class="cls-5" cx="17.15" cy="334.86" r="4"/>
    <circle class="cls-5" cx="19.36" cy="349.62" r="4"/>
    <circle class="cls-5" cx="22.33" cy="364.24" r="4"/>
    <circle class="cls-5" cx="26.07" cy="378.68" r="4"/>
    <circle class="cls-5" cx="30.56" cy="392.91" r="4"/>
    <circle class="cls-5" cx="35.78" cy="406.89" r="4"/>
    <circle class="cls-5" cx="41.73" cy="420.57" r="4"/>
    <circle class="cls-5" cx="48.39" cy="433.92" r="4"/>
    <circle class="cls-5" cx="55.74" cy="446.9" r="4"/>
    <circle class="cls-5" cx="63.76" cy="459.49" r="4"/>
    <circle class="cls-5" cx="72.42" cy="471.63" r="4"/>
    <circle class="cls-5" cx="81.71" cy="483.31" r="4"/>
    <circle class="cls-5" cx="91.6" cy="494.48" r="4"/>
    <circle class="cls-5" cx="102.06" cy="505.12" r="4"/>
    <circle class="cls-5" cx="113.06" cy="515.2" r="4"/>
    <circle class="cls-5" cx="124.57" cy="524.69" r="4"/>
    <circle class="cls-5" cx="136.56" cy="533.56" r="4"/>
    <circle class="cls-5" cx="149" cy="541.8" r="4"/>
    <circle class="cls-5" cx="161.86" cy="549.37" r="4"/>
    <circle class="cls-5" cx="175.1" cy="556.26" r="4"/>
    <circle class="cls-5" cx="188.67" cy="562.44" r="4"/>
    <circle class="cls-5" cx="202.55" cy="567.91" r="4"/>
    <circle class="cls-5" cx="216.7" cy="572.64" r="4"/>
    <circle class="cls-5" cx="231.08" cy="576.63" r="4"/>
    <circle class="cls-5" cx="245.65" cy="579.86" r="4"/>
    <circle class="cls-5" cx="260.36" cy="582.32" r="4"/>
    <circle class="cls-5" cx="275.19" cy="584" r="4"/>
    <circle class="cls-5" cx="290.08" cy="584.91" r="4"/>
    <circle class="cls-5" cx="305" cy="585.04" r="4"/>
    <circle class="cls-5" cx="319.9" cy="584.39" r="4"/>
    <circle class="cls-5" cx="334.75" cy="582.96" r="4"/>
    <circle class="cls-5" cx="349.51" cy="580.75" r="4"/>
    <circle class="cls-5" cx="364.13" cy="577.78" r="4"/>
    <circle class="cls-5" cx="378.57" cy="574.04" r="4"/>
    <circle class="cls-5" cx="392.8" cy="569.55" r="4"/>
    <circle class="cls-5" cx="406.78" cy="564.33" r="4"/>
    <circle class="cls-5" cx="420.46" cy="558.38" r="4"/>
    <circle class="cls-5" cx="433.81" cy="551.72" r="4"/>
    <circle class="cls-5" cx="446.79" cy="544.37" r="4"/>
    <circle class="cls-5" cx="459.38" cy="536.35" r="4"/>
    <circle class="cls-5" cx="471.52" cy="527.69" r="4"/>
    <circle class="cls-5" cx="483.2" cy="518.4" r="4"/>
    <circle class="cls-5" cx="494.37" cy="508.51" r="4"/>
    <circle class="cls-5" cx="505.01" cy="498.06" r="4"/>
    <circle class="cls-5" cx="515.09" cy="487.05" r="4"/>
    <circle class="cls-5" cx="524.58" cy="475.54" r="4"/>
    <circle class="cls-5" cx="533.45" cy="463.55" r="4"/>
    <circle class="cls-5" cx="541.69" cy="451.11" r="4"/>
    <circle class="cls-5" cx="549.26" cy="438.25" r="4"/>
    <circle class="cls-5" cx="556.15" cy="425.01" r="4"/>
    <circle class="cls-5" cx="562.33" cy="411.44" r="4"/>
    <circle class="cls-5" cx="567.8" cy="397.56" r="4"/>
    <circle class="cls-5" cx="572.53" cy="383.41" r="4"/>
    <circle class="cls-5" cx="576.52" cy="369.03" r="4"/>
    <circle class="cls-5" cx="579.75" cy="354.46" r="4"/>
    <circle class="cls-5" cx="582.21" cy="339.75" r="4"/>
    <circle class="cls-5" cx="583.89" cy="324.92" r="4"/>
    <circle class="cls-5" cx="584.8" cy="310.03" r="4"/>
    <circle class="cls-5" cx="584.93" cy="295.11" r="4"/>
    <circle class="cls-5" cx="584.28" cy="280.21" r="4"/>
    <circle class="cls-5" cx="582.85" cy="265.36" r="4"/>
    <circle class="cls-5" cx="580.64" cy="250.6" r="4"/>
    <circle class="cls-5" cx="577.67" cy="235.98" r="4"/>
    <circle class="cls-5" cx="573.93" cy="221.54" r="4"/>
    <circle class="cls-5" cx="569.44" cy="207.31" r="4"/>
    <circle class="cls-5" cx="564.22" cy="193.33" r="4"/>
    <circle class="cls-5" cx="558.27" cy="179.65" r="4"/>
    <circle class="cls-5" cx="551.61" cy="166.3" r="4"/>
    <circle class="cls-5" cx="544.26" cy="153.32" r="4"/>
    <circle class="cls-5" cx="536.24" cy="140.73" r="4"/>
    <circle class="cls-5" cx="527.58" cy="128.59" r="4"/>
    <circle class="cls-5" cx="518.29" cy="116.91" r="4"/>
    <circle class="cls-5" cx="508.4" cy="105.74" r="4"/>
    <circle class="cls-5" cx="497.94" cy="95.1" r="4"/>
    <circle class="cls-5" cx="486.94" cy="85.02" r="4"/>
    <circle class="cls-5" cx="475.43" cy="75.53" r="4"/>
    <circle class="cls-5" cx="463.44" cy="66.66" r="4"/>
    <circle class="cls-5" cx="451" cy="58.42" r="4"/>
    <circle class="cls-5" cx="438.14" cy="50.85" r="4"/>
    <circle class="cls-5" cx="424.9" cy="43.96" r="4"/>
    <circle class="cls-5" cx="411.33" cy="37.78" r="4"/>
    <circle class="cls-5" cx="397.45" cy="32.31" r="4"/>
    <circle class="cls-5" cx="383.3" cy="27.58" r="4"/>
    <circle class="cls-5" cx="368.92" cy="23.59" r="4"/>
    <circle class="cls-5" cx="354.35" cy="20.36" r="4"/>
    <circle class="cls-5" cx="339.64" cy="17.9" r="4"/>
    <circle class="cls-5" cx="324.81" cy="16.22" r="4"/>
    <circle class="cls-5" cx="309.92" cy="15.31" r="4"/>
    <circle class="cls-2" cx="290.45" cy="27.3" r="3.5"/>
    <circle class="cls-2" cx="271.44" cy="28.63" r="3.5"/>
    <circle class="cls-2" cx="252.58" cy="31.28" r="3.5"/>
    <circle class="cls-2" cx="233.94" cy="35.25" r="3.5"/>
    <circle class="cls-2" cx="215.62" cy="40.5" r="3.5"/>
    <circle class="cls-2" cx="197.72" cy="47.02" r="3.5"/>
    <circle class="cls-2" cx="180.31" cy="54.77" r="3.5"/>
    <circle class="cls-2" cx="163.49" cy="63.72" r="3.5"/>
    <circle class="cls-2" cx="147.33" cy="73.81" r="3.5"/>
    <circle class="cls-2" cx="131.92" cy="85.02" r="3.5"/>
    <circle class="cls-2" cx="117.33" cy="97.26" r="3.5"/>
    <circle class="cls-2" cx="103.62" cy="110.5" r="3.5"/>
    <circle class="cls-2" cx="90.87" cy="124.66" r="3.5"/>
    <circle class="cls-2" cx="79.14" cy="139.68" r="3.5"/>
    <circle class="cls-2" cx="68.49" cy="155.47" r="3.5"/>
    <circle class="cls-2" cx="58.96" cy="171.98" r="3.5"/>
    <circle class="cls-2" cx="50.61" cy="189.1" r="3.5"/>
    <circle class="cls-2" cx="43.48" cy="206.77" r="3.5"/>
    <circle class="cls-2" cx="37.59" cy="224.89" r="3.5"/>
    <circle class="cls-2" cx="32.98" cy="243.38" r="3.5"/>
    <circle class="cls-2" cx="29.68" cy="262.14" r="3.5"/>
    <circle class="cls-2" cx="27.69" cy="281.09" r="3.5"/>
    <circle class="cls-2" cx="27.02" cy="300.13" r="3.5"/>
    <circle class="cls-2" cx="27.69" cy="319.18" r="3.5"/>
    <circle class="cls-2" cx="29.68" cy="338.12" r="3.5"/>
    <circle class="cls-2" cx="32.99" cy="356.89" r="3.5"/>
    <circle class="cls-2" cx="37.6" cy="375.37" r="3.5"/>
    <circle class="cls-2" cx="43.49" cy="393.5" r="3.5"/>
    <circle class="cls-2" cx="50.63" cy="411.16" r="3.5"/>
    <circle class="cls-2" cx="58.99" cy="428.29" r="3.5"/>
    <circle class="cls-2" cx="68.51" cy="444.79" r="3.5"/>
    <circle class="cls-2" cx="79.17" cy="460.58" r="3.5"/>
    <circle class="cls-2" cx="90.9" cy="475.59" r="3.5"/>
    <circle class="cls-2" cx="103.65" cy="489.75" r="3.5"/>
    <circle class="cls-2" cx="117.36" cy="502.99" r="3.5"/>
    <circle class="cls-2" cx="131.96" cy="515.23" r="3.5"/>
    <circle class="cls-2" cx="147.37" cy="526.43" r="3.5"/>
    <circle class="cls-2" cx="163.53" cy="536.53" r="3.5"/>
    <circle class="cls-2" cx="180.36" cy="545.47" r="3.5"/>
    <circle class="cls-2" cx="197.76" cy="553.22" r="3.5"/>
    <circle class="cls-2" cx="215.67" cy="559.73" r="3.5"/>
    <circle class="cls-2" cx="233.98" cy="564.98" r="3.5"/>
    <circle class="cls-2" cx="252.62" cy="568.94" r="3.5"/>
    <circle class="cls-2" cx="271.49" cy="571.59" r="3.5"/>
    <circle class="cls-2" cx="290.5" cy="572.92" r="3.5"/>
    <circle class="cls-2" cx="309.55" cy="572.92" r="3.5"/>
    <circle class="cls-2" cx="328.56" cy="571.59" r="3.5"/>
    <circle class="cls-2" cx="347.42" cy="568.94" r="3.5"/>
    <circle class="cls-2" cx="366.06" cy="564.97" r="3.5"/>
    <circle class="cls-2" cx="384.38" cy="559.72" r="3.5"/>
    <circle class="cls-2" cx="402.28" cy="553.2" r="3.5"/>
    <circle class="cls-2" cx="419.69" cy="545.45" r="3.5"/>
    <circle class="cls-2" cx="436.51" cy="536.5" r="3.5"/>
    <circle class="cls-2" cx="452.67" cy="526.41" r="3.5"/>
    <circle class="cls-2" cx="468.08" cy="515.2" r="3.5"/>
    <circle class="cls-2" cx="482.67" cy="502.96" r="3.5"/>
    <circle class="cls-2" cx="496.38" cy="489.72" r="3.5"/>
    <circle class="cls-2" cx="509.13" cy="475.56" r="3.5"/>
    <circle class="cls-2" cx="520.86" cy="460.54" r="3.5"/>
    <circle class="cls-2" cx="531.51" cy="444.75" r="3.5"/>
    <circle class="cls-2" cx="541.04" cy="428.24" r="3.5"/>
    <circle class="cls-2" cx="549.39" cy="411.12" r="3.5"/>
    <circle class="cls-2" cx="556.52" cy="393.45" r="3.5"/>
    <circle class="cls-2" cx="562.41" cy="375.33" r="3.5"/>
    <circle class="cls-2" cx="567.02" cy="356.84" r="3.5"/>
    <circle class="cls-2" cx="570.32" cy="338.08" r="3.5"/>
    <circle class="cls-2" cx="572.31" cy="319.13" r="3.5"/>
    <circle class="cls-2" cx="572.98" cy="300.09" r="3.5"/>
    <circle class="cls-2" cx="572.31" cy="281.05" r="3.5"/>
    <circle class="cls-2" cx="570.32" cy="262.1" r="3.5"/>
    <circle class="cls-2" cx="567.01" cy="243.33" r="3.5"/>
    <circle class="cls-2" cx="562.4" cy="224.85" r="3.5"/>
    <circle class="cls-2" cx="556.51" cy="206.72" r="3.5"/>
    <circle class="cls-2" cx="549.37" cy="189.06" r="3.5"/>
    <circle class="cls-2" cx="541.01" cy="171.93" r="3.5"/>
    <circle class="cls-2" cx="531.49" cy="155.43" r="3.5"/>
    <circle class="cls-2" cx="520.83" cy="139.64" r="3.5"/>
    <circle class="cls-2" cx="509.1" cy="124.63" r="3.5"/>
    <circle class="cls-2" cx="496.35" cy="110.47" r="3.5"/>
    <circle class="cls-2" cx="482.64" cy="97.23" r="3.5"/>
    <circle class="cls-2" cx="468.04" cy="84.99" r="3.5"/>
    <circle class="cls-2" cx="452.63" cy="73.79" r="3.5"/>
    <circle class="cls-2" cx="436.47" cy="63.69" r="3.5"/>
    <circle class="cls-2" cx="419.64" cy="54.75" r="3.5"/>
    <circle class="cls-2" cx="402.24" cy="47" r="3.5"/>
    <circle class="cls-2" cx="384.33" cy="40.49" r="3.5"/>
    <circle class="cls-2" cx="366.02" cy="35.24" r="3.5"/>
    <circle class="cls-2" cx="347.38" cy="31.28" r="3.5"/>
    <circle class="cls-2" cx="328.51" cy="28.63" r="3.5"/>
    <circle class="cls-2" cx="309.5" cy="27.3" r="3.5"/>
    <circle class="cls-3" cx="295.61" cy="50.17" r="3.5"/>
    <circle class="cls-3" cx="269.51" cy="52" r="3.5"/>
    <circle class="cls-3" cx="243.74" cy="56.55" r="3.5"/>
    <circle class="cls-3" cx="218.59" cy="63.76" r="3.5"/>
    <circle class="cls-3" cx="194.33" cy="73.56" r="3.5"/>
    <circle class="cls-3" cx="171.23" cy="85.85" r="3.5"/>
    <circle class="cls-3" cx="149.54" cy="100.48" r="3.5"/>
    <circle class="cls-3" cx="129.5" cy="117.3" r="3.5"/>
    <circle class="cls-3" cx="111.32" cy="136.13" r="3.5"/>
    <circle class="cls-3" cx="95.22" cy="156.75" r="3.5"/>
    <circle class="cls-3" cx="81.35" cy="178.94" r="3.5"/>
    <circle class="cls-3" cx="69.89" cy="202.46" r="3.5"/>
    <circle class="cls-3" cx="60.94" cy="227.05" r="3.5"/>
    <circle class="cls-3" cx="54.61" cy="252.43" r="3.5"/>
    <circle class="cls-3" cx="50.97" cy="278.35" r="3.5"/>
    <circle class="cls-3" cx="50.06" cy="304.5" r="3.5"/>
    <circle class="cls-3" cx="51.89" cy="330.6" r="3.5"/>
    <circle class="cls-3" cx="56.44" cy="356.37" r="3.5"/>
    <circle class="cls-3" cx="63.65" cy="381.52" r="3.5"/>
    <circle class="cls-3" cx="73.45" cy="405.78" r="3.5"/>
    <circle class="cls-3" cx="85.74" cy="428.88" r="3.5"/>
    <circle class="cls-3" cx="100.37" cy="450.57" r="3.5"/>
    <circle class="cls-3" cx="117.19" cy="470.61" r="3.5"/>
    <circle class="cls-3" cx="136.02" cy="488.79" r="3.5"/>
    <circle class="cls-3" cx="156.64" cy="504.89" r="3.5"/>
    <circle class="cls-3" cx="178.83" cy="518.76" r="3.5"/>
    <circle class="cls-3" cx="202.35" cy="530.22" r="3.5"/>
    <circle class="cls-3" cx="226.94" cy="539.17" r="3.5"/>
    <circle class="cls-3" cx="252.32" cy="545.5" r="3.5"/>
    <circle class="cls-3" cx="278.24" cy="549.14" r="3.5"/>
    <circle class="cls-3" cx="304.39" cy="550.05" r="3.5"/>
    <circle class="cls-3" cx="330.49" cy="548.22" r="3.5"/>
    <circle class="cls-3" cx="356.26" cy="543.67" r="3.5"/>
    <circle class="cls-3" cx="381.41" cy="536.46" r="3.5"/>
    <circle class="cls-3" cx="405.67" cy="526.66" r="3.5"/>
    <circle class="cls-3" cx="428.77" cy="514.37" r="3.5"/>
    <circle class="cls-3" cx="450.46" cy="499.74" r="3.5"/>
    <circle class="cls-3" cx="470.5" cy="482.92" r="3.5"/>
    <circle class="cls-3" cx="488.68" cy="464.09" r="3.5"/>
    <circle class="cls-3" cx="504.78" cy="443.47" r="3.5"/>
    <circle class="cls-3" cx="518.65" cy="421.28" r="3.5"/>
    <circle class="cls-3" cx="530.11" cy="397.76" r="3.5"/>
    <circle class="cls-3" cx="539.06" cy="373.17" r="3.5"/>
    <circle class="cls-3" cx="545.39" cy="347.79" r="3.5"/>
    <circle class="cls-3" cx="549.03" cy="321.87" r="3.5"/>
    <circle class="cls-3" cx="549.94" cy="295.72" r="3.5"/>
    <circle class="cls-3" cx="548.11" cy="269.62" r="3.5"/>
    <circle class="cls-3" cx="543.56" cy="243.85" r="3.5"/>
    <circle class="cls-3" cx="536.35" cy="218.7" r="3.5"/>
    <circle class="cls-3" cx="526.55" cy="194.44" r="3.5"/>
    <circle class="cls-3" cx="514.26" cy="171.34" r="3.5"/>
    <circle class="cls-3" cx="499.63" cy="149.65" r="3.5"/>
    <circle class="cls-3" cx="482.81" cy="129.61" r="3.5"/>
    <circle class="cls-3" cx="463.98" cy="111.43" r="3.5"/>
    <circle class="cls-3" cx="443.36" cy="95.33" r="3.5"/>
    <circle class="cls-3" cx="421.17" cy="81.46" r="3.5"/>
    <circle class="cls-3" cx="397.65" cy="70" r="3.5"/>
    <circle class="cls-3" cx="373.06" cy="61.05" r="3.5"/>
    <circle class="cls-3" cx="347.68" cy="54.72" r="3.5"/>
    <circle class="cls-3" cx="321.76" cy="51.08" r="3.5"/>
    <circle class="cls-15" cx="286.27" cy="38.49" r="3.5"/>
    <circle class="cls-15" cx="263.52" cy="40.69" r="3.5"/>
    <circle class="cls-15" cx="241.05" cy="44.85" r="3.5"/>
    <circle class="cls-15" cx="219.02" cy="50.96" r="3.5"/>
    <circle class="cls-15" cx="197.62" cy="58.97" r="3.5"/>
    <circle class="cls-15" cx="176.99" cy="68.81" r="3.5"/>
    <circle class="cls-15" cx="157.3" cy="80.41" r="3.5"/>
    <circle class="cls-15" cx="138.69" cy="93.68" r="3.5"/>
    <circle class="cls-15" cx="121.32" cy="108.53" r="3.5"/>
    <circle class="cls-15" cx="105.3" cy="124.83" r="3.5"/>
    <circle class="cls-15" cx="90.76" cy="142.47" r="3.5"/>
    <circle class="cls-15" cx="77.82" cy="161.3" r="3.5"/>
    <circle class="cls-15" cx="66.57" cy="181.2" r="3.5"/>
    <circle class="cls-15" cx="57.09" cy="201.99" r="3.5"/>
    <circle class="cls-15" cx="49.46" cy="223.54" r="3.5"/>
    <circle class="cls-15" cx="43.74" cy="245.66" r="3.5"/>
    <circle class="cls-15" cx="39.97" cy="268.21" r="3.5"/>
    <circle class="cls-15" cx="38.18" cy="290.99" r="3.5"/>
    <circle class="cls-15" cx="38.38" cy="313.84" r="3.5"/>
    <circle class="cls-15" cx="40.58" cy="336.59" r="3.5"/>
    <circle class="cls-15" cx="44.74" cy="359.06" r="3.5"/>
    <circle class="cls-15" cx="50.85" cy="381.09" r="3.5"/>
    <circle class="cls-15" cx="58.86" cy="402.49" r="3.5"/>
    <circle class="cls-15" cx="68.7" cy="423.12" r="3.5"/>
    <circle class="cls-15" cx="80.3" cy="442.81" r="3.5"/>
    <circle class="cls-15" cx="93.57" cy="461.42" r="3.5"/>
    <circle class="cls-15" cx="108.42" cy="478.79" r="3.5"/>
    <circle class="cls-15" cx="124.72" cy="494.81" r="3.5"/>
    <circle class="cls-15" cx="142.36" cy="509.35" r="3.5"/>
    <circle class="cls-15" cx="161.19" cy="522.29" r="3.5"/>
    <circle class="cls-15" cx="181.09" cy="533.54" r="3.5"/>
    <circle class="cls-15" cx="201.88" cy="543.02" r="3.5"/>
    <circle class="cls-15" cx="223.43" cy="550.65" r="3.5"/>
    <circle class="cls-15" cx="245.55" cy="556.37" r="3.5"/>
    <circle class="cls-15" cx="268.1" cy="560.14" r="3.5"/>
    <circle class="cls-15" cx="290.88" cy="561.93" r="3.5"/>
    <circle class="cls-15" cx="313.73" cy="561.73" r="3.5"/>
    <circle class="cls-15" cx="336.48" cy="559.53" r="3.5"/>
    <circle class="cls-15" cx="358.95" cy="555.37" r="3.5"/>
    <circle class="cls-15" cx="380.98" cy="549.26" r="3.5"/>
    <circle class="cls-15" cx="402.38" cy="541.25" r="3.5"/>
    <circle class="cls-15" cx="423.01" cy="531.41" r="3.5"/>
    <circle class="cls-15" cx="442.7" cy="519.81" r="3.5"/>
    <circle class="cls-15" cx="461.31" cy="506.54" r="3.5"/>
    <circle class="cls-15" cx="478.68" cy="491.69" r="3.5"/>
    <circle class="cls-15" cx="494.7" cy="475.39" r="3.5"/>
    <circle class="cls-15" cx="509.24" cy="457.75" r="3.5"/>
    <circle class="cls-15" cx="522.18" cy="438.92" r="3.5"/>
    <circle class="cls-15" cx="533.43" cy="419.02" r="3.5"/>
    <circle class="cls-15" cx="542.91" cy="398.23" r="3.5"/>
    <circle class="cls-15" cx="550.54" cy="376.68" r="3.5"/>
    <circle class="cls-15" cx="556.26" cy="354.56" r="3.5"/>
    <circle class="cls-15" cx="560.03" cy="332.01" r="3.5"/>
    <circle class="cls-15" cx="561.82" cy="309.23" r="3.5"/>
    <circle class="cls-15" cx="561.62" cy="286.38" r="3.5"/>
    <circle class="cls-15" cx="559.42" cy="263.63" r="3.5"/>
    <circle class="cls-15" cx="555.26" cy="241.16" r="3.5"/>
    <circle class="cls-15" cx="549.15" cy="219.13" r="3.5"/>
    <circle class="cls-15" cx="541.14" cy="197.73" r="3.5"/>
    <circle class="cls-15" cx="531.3" cy="177.1" r="3.5"/>
    <circle class="cls-15" cx="519.7" cy="157.41" r="3.5"/>
    <circle class="cls-15" cx="506.43" cy="138.8" r="3.5"/>
    <circle class="cls-15" cx="491.58" cy="121.43" r="3.5"/>
    <circle class="cls-15" cx="475.28" cy="105.41" r="3.5"/>
    <circle class="cls-15" cx="457.64" cy="90.87" r="3.5"/>
    <circle class="cls-15" cx="438.81" cy="77.93" r="3.5"/>
    <circle class="cls-15" cx="418.91" cy="66.68" r="3.5"/>
    <circle class="cls-15" cx="398.12" cy="57.2" r="3.5"/>
    <circle class="cls-15" cx="376.57" cy="49.57" r="3.5"/>
    <circle class="cls-15" cx="354.45" cy="43.85" r="3.5"/>
    <circle class="cls-15" cx="331.9" cy="40.08" r="3.5"/>
    <circle class="cls-15" cx="309.12" cy="38.29" r="3.5"/>
    <circle class="cls-10" cx="299.98" cy="89.55" r="3.25"/>
    <circle class="cls-10" cx="256.2" cy="94.16" r="3.25"/>
    <circle class="cls-10" cx="214.34" cy="107.77" r="3.25"/>
    <circle class="cls-10" cx="176.22" cy="129.78" r="3.25"/>
    <circle class="cls-10" cx="143.51" cy="159.24" r="3.25"/>
    <circle class="cls-10" cx="117.64" cy="194.85" r="3.25"/>
    <circle class="cls-10" cx="99.74" cy="235.07" r="3.25"/>
    <circle class="cls-10" cx="90.6" cy="278.12" r="3.25"/>
    <circle class="cls-10" cx="90.6" cy="322.14" r="3.25"/>
    <circle class="cls-10" cx="99.76" cy="365.2" r="3.25"/>
    <circle class="cls-10" cx="117.67" cy="405.41" r="3.25"/>
    <circle class="cls-10" cx="143.54" cy="441.02" r="3.25"/>
    <circle class="cls-10" cx="176.26" cy="470.47" r="3.25"/>
    <circle class="cls-10" cx="214.38" cy="492.47" r="3.25"/>
    <circle class="cls-10" cx="256.25" cy="506.07" r="3.25"/>
    <circle class="cls-10" cx="300.02" cy="510.67" r="3.25"/>
    <circle class="cls-10" cx="343.8" cy="506.06" r="3.25"/>
    <circle class="cls-10" cx="385.66" cy="492.45" r="3.25"/>
    <circle class="cls-10" cx="423.78" cy="470.44" r="3.25"/>
    <circle class="cls-10" cx="456.49" cy="440.98" r="3.25"/>
    <circle class="cls-10" cx="482.36" cy="405.37" r="3.25"/>
    <circle class="cls-10" cx="500.26" cy="365.15" r="3.25"/>
    <circle class="cls-10" cx="509.4" cy="322.1" r="3.25"/>
    <circle class="cls-10" cx="509.4" cy="278.08" r="3.25"/>
    <circle class="cls-10" cx="500.24" cy="235.02" r="3.25"/>
    <circle class="cls-10" cx="482.33" cy="194.81" r="3.25"/>
    <circle class="cls-10" cx="456.46" cy="159.2" r="3.25"/>
    <circle class="cls-10" cx="423.74" cy="129.75" r="3.25"/>
    <circle class="cls-10" cx="385.62" cy="107.75" r="3.25"/>
    <circle class="cls-10" cx="343.75" cy="94.15" r="3.25"/>
    <circle class="cls-9" cx="280.39" cy="76.18" r="3.5"/>
    <circle class="cls-9" cx="241.8" cy="82.99" r="3.5"/>
    <circle class="cls-9" cx="204.98" cy="96.39" r="3.5"/>
    <circle class="cls-9" cx="171.05" cy="115.99" r="3.5"/>
    <circle class="cls-9" cx="141.03" cy="141.18" r="3.5"/>
    <circle class="cls-9" cx="115.85" cy="171.2" r="3.5"/>
    <circle class="cls-9" cx="96.26" cy="205.13" r="3.5"/>
    <circle class="cls-9" cx="82.87" cy="241.95" r="3.5"/>
    <circle class="cls-9" cx="76.07" cy="280.54" r="3.5"/>
    <circle class="cls-9" cx="76.07" cy="319.72" r="3.5"/>
    <circle class="cls-9" cx="82.88" cy="358.31" r="3.5"/>
    <circle class="cls-9" cx="96.28" cy="395.13" r="3.5"/>
    <circle class="cls-9" cx="115.88" cy="429.06" r="3.5"/>
    <circle class="cls-9" cx="141.07" cy="459.08" r="3.5"/>
    <circle class="cls-9" cx="171.09" cy="484.26" r="3.5"/>
    <circle class="cls-9" cx="205.02" cy="503.85" r="3.5"/>
    <circle class="cls-9" cx="241.84" cy="517.24" r="3.5"/>
    <circle class="cls-9" cx="280.43" cy="524.04" r="3.5"/>
    <circle class="cls-9" cx="319.61" cy="524.04" r="3.5"/>
    <circle class="cls-9" cx="358.2" cy="517.23" r="3.5"/>
    <circle class="cls-9" cx="395.02" cy="503.83" r="3.5"/>
    <circle class="cls-9" cx="428.95" cy="484.23" r="3.5"/>
    <circle class="cls-9" cx="458.97" cy="459.04" r="3.5"/>
    <circle class="cls-9" cx="484.15" cy="429.02" r="3.5"/>
    <circle class="cls-9" cx="503.74" cy="395.09" r="3.5"/>
    <circle class="cls-9" cx="517.13" cy="358.27" r="3.5"/>
    <circle class="cls-9" cx="523.93" cy="319.68" r="3.5"/>
    <circle class="cls-9" cx="523.93" cy="280.5" r="3.5"/>
    <circle class="cls-9" cx="517.12" cy="241.91" r="3.5"/>
    <circle class="cls-9" cx="503.72" cy="205.09" r="3.5"/>
    <circle class="cls-9" cx="484.12" cy="171.16" r="3.5"/>
    <circle class="cls-9" cx="458.93" cy="141.14" r="3.5"/>
    <circle class="cls-9" cx="428.91" cy="115.96" r="3.5"/>
    <circle class="cls-9" cx="394.98" cy="96.37" r="3.5"/>
    <circle class="cls-9" cx="358.16" cy="82.98" r="3.5"/>
    <circle class="cls-9" cx="319.57" cy="76.18" r="3.5"/>
    <circle class="cls-4" cx="291.67" cy="62.28" r="3.5"/>
    <circle class="cls-4" cx="258.65" cy="65.75" r="3.5"/>
    <circle class="cls-4" cx="226.44" cy="73.79" r="3.5"/>
    <circle class="cls-4" cx="195.66" cy="86.23" r="3.5"/>
    <circle class="cls-4" cx="166.91" cy="102.83" r="3.5"/>
    <circle class="cls-4" cx="140.75" cy="123.27" r="3.5"/>
    <circle class="cls-4" cx="117.68" cy="147.16" r="3.5"/>
    <circle class="cls-4" cx="98.17" cy="174.02" r="3.5"/>
    <circle class="cls-4" cx="82.59" cy="203.34" r="3.5"/>
    <circle class="cls-4" cx="71.24" cy="234.54" r="3.5"/>
    <circle class="cls-4" cx="64.34" cy="267.01" r="3.5"/>
    <circle class="cls-4" cx="62.02" cy="300.13" r="3.5"/>
    <circle class="cls-4" cx="64.34" cy="333.25" r="3.5"/>
    <circle class="cls-4" cx="71.25" cy="365.73" r="3.5"/>
    <circle class="cls-4" cx="82.61" cy="396.93" r="3.5"/>
    <circle class="cls-4" cx="98.2" cy="426.24" r="3.5"/>
    <circle class="cls-4" cx="117.71" cy="453.1" r="3.5"/>
    <circle class="cls-4" cx="140.78" cy="476.98" r="3.5"/>
    <circle class="cls-4" cx="166.94" cy="497.41" r="3.5"/>
    <circle class="cls-4" cx="195.7" cy="514.01" r="3.5"/>
    <circle class="cls-4" cx="226.48" cy="526.45" r="3.5"/>
    <circle class="cls-4" cx="258.7" cy="534.48" r="3.5"/>
    <circle class="cls-4" cx="291.72" cy="537.94" r="3.5"/>
    <circle class="cls-4" cx="324.9" cy="536.78" r="3.5"/>
    <circle class="cls-4" cx="357.59" cy="531.01" r="3.5"/>
    <circle class="cls-4" cx="389.17" cy="520.75" r="3.5"/>
    <circle class="cls-4" cx="419.01" cy="506.19" r="3.5"/>
    <circle class="cls-4" cx="446.53" cy="487.62" r="3.5"/>
    <circle class="cls-4" cx="471.2" cy="465.41" r="3.5"/>
    <circle class="cls-4" cx="492.54" cy="439.97" r="3.5"/>
    <circle class="cls-4" cx="510.13" cy="411.81" r="3.5"/>
    <circle class="cls-4" cx="523.63" cy="381.48" r="3.5"/>
    <circle class="cls-4" cx="532.78" cy="349.57" r="3.5"/>
    <circle class="cls-4" cx="537.4" cy="316.69" r="3.5"/>
    <circle class="cls-4" cx="537.4" cy="283.49" r="3.5"/>
    <circle class="cls-4" cx="532.77" cy="250.61" r="3.5"/>
    <circle class="cls-4" cx="523.62" cy="218.7" r="3.5"/>
    <circle class="cls-4" cx="510.11" cy="188.37" r="3.5"/>
    <circle class="cls-4" cx="492.51" cy="160.21" r="3.5"/>
    <circle class="cls-4" cx="471.17" cy="134.78" r="3.5"/>
    <circle class="cls-4" cx="446.49" cy="112.57" r="3.5"/>
    <circle class="cls-4" cx="418.97" cy="94" r="3.5"/>
    <circle class="cls-4" cx="389.13" cy="79.45" r="3.5"/>
    <circle class="cls-4" cx="357.55" cy="69.2" r="3.5"/>
    <circle class="cls-4" cx="324.85" cy="63.43" r="3.5"/>
    <circle class="cls-7" cx="272.39" cy="103.8" r="3"/>
    <circle class="cls-7" cx="225.72" cy="116.31" r="3"/>
    <circle class="cls-7" cx="183.46" cy="139.74" r="3"/>
    <circle class="cls-7" cx="148.12" cy="172.7" r="3"/>
    <circle class="cls-7" cx="121.81" cy="213.23" r="3"/>
    <circle class="cls-7" cx="106.08" cy="258.92" r="3"/>
    <circle class="cls-7" cx="101.88" cy="307.05" r="3"/>
    <circle class="cls-7" cx="109.44" cy="354.78" r="3"/>
    <circle class="cls-7" cx="128.33" cy="399.25" r="3"/>
    <circle class="cls-7" cx="157.41" cy="437.84" r="3"/>
    <circle class="cls-7" cx="194.97" cy="468.24" r="3"/>
    <circle class="cls-7" cx="238.76" cy="488.66" r="3"/>
    <circle class="cls-7" cx="286.19" cy="497.87" r="3"/>
    <circle class="cls-7" cx="334.45" cy="495.34" r="3"/>
    <circle class="cls-7" cx="380.65" cy="481.2" r="3"/>
    <circle class="cls-7" cx="422.07" cy="456.31" r="3"/>
    <circle class="cls-7" cx="456.23" cy="422.14" r="3"/>
    <circle class="cls-7" cx="481.11" cy="380.72" r="3"/>
    <circle class="cls-7" cx="495.23" cy="334.51" r="3"/>
    <circle class="cls-7" cx="497.76" cy="286.26" r="3"/>
    <circle class="cls-7" cx="488.53" cy="238.83" r="3"/>
    <circle class="cls-7" cx="468.11" cy="195.04" r="3"/>
    <circle class="cls-7" cx="437.69" cy="157.49" r="3"/>
    <circle class="cls-7" cx="399.1" cy="128.42" r="3"/>
    <circle class="cls-7" cx="354.62" cy="109.54" r="3"/>
    <circle class="cls-7" cx="306.9" cy="101.99" r="3"/>
    <circle class="cls-14" cx="269.53" cy="127.41" r="2.5"/>
    <circle class="cls-14" cx="217.65" cy="145.28" r="2.5"/>
    <circle class="cls-14" cx="173.84" cy="178.31" r="2.5"/>
    <circle class="cls-14" cx="142.37" cy="223.26" r="2.5"/>
    <circle class="cls-14" cx="126.34" cy="275.73" r="2.5"/>
    <circle class="cls-14" cx="127.3" cy="330.58" r="2.5"/>
    <circle class="cls-14" cx="145.17" cy="382.46" r="2.5"/>
    <circle class="cls-14" cx="178.2" cy="426.27" r="2.5"/>
    <circle class="cls-14" cx="223.15" cy="457.74" r="2.5"/>
    <circle class="cls-14" cx="275.62" cy="473.77" r="2.5"/>
    <circle class="cls-14" cx="330.47" cy="472.81" r="2.5"/>
    <circle class="cls-14" cx="382.35" cy="454.94" r="2.5"/>
    <circle class="cls-14" cx="426.16" cy="421.91" r="2.5"/>
    <circle class="cls-14" cx="457.63" cy="376.96" r="2.5"/>
    <circle class="cls-14" cx="473.66" cy="324.49" r="2.5"/>
    <circle class="cls-14" cx="472.7" cy="269.64" r="2.5"/>
    <circle class="cls-14" cx="454.83" cy="217.76" r="2.5"/>
    <circle class="cls-14" cx="421.8" cy="173.95" r="2.5"/>
    <circle class="cls-14" cx="376.85" cy="142.48" r="2.5"/>
    <circle class="cls-14" cx="324.38" cy="126.45" r="2.5"/>
    <circle class="cls-8" cx="249.24" cy="143.97" r="2.25"/>
    <circle class="cls-8" cx="198.9" cy="170.75" r="2.25"/>
    <circle class="cls-8" cx="160.76" cy="213.13" r="2.25"/>
    <circle class="cls-8" cx="139.4" cy="266" r="2.25"/>
    <circle class="cls-8" cx="137.42" cy="322.98" r="2.25"/>
    <circle class="cls-8" cx="155.05" cy="377.21" r="2.25"/>
    <circle class="cls-8" cx="190.16" cy="422.13" r="2.25"/>
    <circle class="cls-8" cx="238.52" cy="452.34" r="2.25"/>
    <circle class="cls-8" cx="294.29" cy="464.19" r="2.25"/>
    <circle class="cls-8" cx="350.76" cy="456.25" r="2.25"/>
    <circle class="cls-8" cx="401.1" cy="429.47" r="2.25"/>
    <circle class="cls-8" cx="439.24" cy="387.09" r="2.25"/>
    <circle class="cls-8" cx="460.6" cy="334.22" r="2.25"/>
    <circle class="cls-8" cx="462.58" cy="277.24" r="2.25"/>
    <circle class="cls-8" cx="444.95" cy="223.01" r="2.25"/>
    <circle class="cls-8" cx="409.84" cy="178.09" r="2.25"/>
    <circle class="cls-8" cx="361.48" cy="147.88" r="2.25"/>
    <circle class="cls-8" cx="305.71" cy="136.03" r="2.25"/>
    <circle class="cls-13" cx="290.18" cy="113.26" r="2.75"/>
    <circle class="cls-13" cx="239.06" cy="123.2" r="2.75"/>
    <circle class="cls-13" cx="192.66" cy="146.85" r="2.75"/>
    <circle class="cls-13" cx="154.57" cy="182.38" r="2.75"/>
    <circle class="cls-13" cx="127.76" cy="227.02" r="2.75"/>
    <circle class="cls-13" cx="114.28" cy="277.33" r="2.75"/>
    <circle class="cls-13" cx="115.2" cy="329.4" r="2.75"/>
    <circle class="cls-13" cx="130.43" cy="379.21" r="2.75"/>
    <circle class="cls-13" cx="158.8" cy="422.88" r="2.75"/>
    <circle class="cls-13" cx="198.11" cy="457.05" r="2.75"/>
    <circle class="cls-13" cx="245.32" cy="479.05" r="2.75"/>
    <circle class="cls-13" cx="296.76" cy="487.19" r="2.75"/>
    <circle class="cls-13" cx="348.45" cy="480.84" r="2.75"/>
    <circle class="cls-13" cx="396.39" cy="460.48" r="2.75"/>
    <circle class="cls-13" cx="436.86" cy="427.7" r="2.75"/>
    <circle class="cls-13" cx="466.73" cy="385.04" r="2.75"/>
    <circle class="cls-13" cx="483.68" cy="335.79" r="2.75"/>
    <circle class="cls-13" cx="486.4" cy="283.78" r="2.75"/>
    <circle class="cls-13" cx="474.67" cy="233.03" r="2.75"/>
    <circle class="cls-13" cx="449.42" cy="187.49" r="2.75"/>
    <circle class="cls-13" cx="412.59" cy="150.66" r="2.75"/>
    <circle class="cls-13" cx="367.03" cy="125.42" r="2.75"/>
    <circle class="cls-6" cx="247.78" cy="156.72" r="2"/>
    <circle class="cls-6" cx="197.87" cy="186.72" r="2"/>
    <circle class="cls-6" cx="162.83" cy="233.23" r="2"/>
    <circle class="cls-6" cx="147.77" cy="289.49" r="2"/>
    <circle class="cls-6" cx="154.87" cy="347.29" r="2"/>
    <circle class="cls-6" cx="183.11" cy="398.22" r="2"/>
    <circle class="cls-6" cx="228.38" cy="434.86" r="2"/>
    <circle class="cls-6" cx="284.07" cy="451.88" r="2"/>
    <circle class="cls-6" cx="342.09" cy="446.8" r="2"/>
    <circle class="cls-6" cx="393.97" cy="420.35" r="2"/>
    <circle class="cls-6" cx="432.17" cy="376.39" r="2"/>
    <circle class="cls-6" cx="451.12" cy="321.33" r="2"/>
    <circle class="cls-6" cx="448.07" cy="263.17" r="2"/>
    <circle class="cls-6" cx="423.45" cy="210.39" r="2"/>
    <circle class="cls-6" cx="380.85" cy="170.68" r="2"/>
    <circle class="cls-6" cx="326.48" cy="149.82" r="2"/>
    <circle class="cls-12" cx="270.87" cy="163.2" r="1.75"/>
    <circle class="cls-12" cx="217.7" cy="186.88" r="1.75"/>
    <circle class="cls-12" cx="178.76" cy="230.14" r="1.75"/>
    <circle class="cls-12" cx="160.79" cy="285.5" r="1.75"/>
    <circle class="cls-12" cx="166.88" cy="343.39" r="1.75"/>
    <circle class="cls-12" cx="195.99" cy="393.79" r="1.75"/>
    <circle class="cls-12" cx="243.09" cy="427.99" r="1.75"/>
    <circle class="cls-12" cx="300.02" cy="440.09" r="1.75"/>
    <circle class="cls-12" cx="356.95" cy="427.98" r="1.75"/>
    <circle class="cls-12" cx="404.04" cy="393.76" r="1.75"/>
    <circle class="cls-12" cx="433.13" cy="343.34" r="1.75"/>
    <circle class="cls-12" cx="439.21" cy="285.46" r="1.75"/>
    <circle class="cls-12" cx="421.21" cy="230.1" r="1.75"/>
    <circle class="cls-12" cx="382.26" cy="186.85" r="1.75"/>
    <circle class="cls-12" cx="329.08" cy="163.19" r="1.75"/>
    <circle class="cls-11" cx="299.98" cy="173.13" r="1.5"/>
    <circle class="cls-11" cx="244.32" cy="185.99" r="1.5"/>
    <circle class="cls-11" cx="199.93" cy="221.95" r="1.5"/>
    <circle class="cls-11" cx="175.79" cy="273.73" r="1.5"/>
    <circle class="cls-11" cx="176.8" cy="330.85" r="1.5"/>
    <circle class="cls-11" cx="202.74" cy="381.75" r="1.5"/>
    <circle class="cls-11" cx="248.37" cy="416.12" r="1.5"/>
    <circle class="cls-11" cx="304.45" cy="427.01" r="1.5"/>
    <circle class="cls-11" cx="359.63" cy="412.21" r="1.5"/>
    <circle class="cls-11" cx="402.74" cy="374.73" r="1.5"/>
    <circle class="cls-11" cx="425.05" cy="322.14" r="1.5"/>
    <circle class="cls-11" cx="422.05" cy="265.09" r="1.5"/>
    <circle class="cls-11" cx="394.35" cy="215.13" r="1.5"/>
    <circle class="cls-11" cx="347.54" cy="182.37" r="1.5"/>
  </g>
  <g id="Layer_2" data-name="Layer 2">
    <rect class="cls-1" x="165.13" y="152.61" width="70" height="283.09"/>
    <rect class="cls-1" x="341.21" y="151.91" width="70" height="283.09"/>
    <rect class="cls-1" x="235.13" y="270.56" width="106.09" height="47.36"/>
  </g>
</svg>
